<?xml version="1.0" encoding="utf-8"?>
<!DOCTYPE svg PUBLIC "-//W3C//DTD SVG 1.1//EN" "http://www.w3.org/Graphics/SVG/1.1/DTD/svg11.dtd">
<svg style="width:308px;height:308px;" version="1.1" id="图形" xmlns="http://www.w3.org/2000/svg" xmlns:xlink="http://www.w3.org/1999/xlink" x="0px" y="0px" width="1024px" height="1024px" viewBox="0 0 1024 1024" enable-background="new 0 0 1024 1024" xml:space="preserve">
  <path class="svgpath" data-index="path_0" fill="#ffffff" d="M512.224256 64.512c17.268736 0 34.382848 1.933312 51.350528 5.801984 16.968704 3.869696 32.89088 9.079808 47.773696 15.629312 14.886912 6.549504 28.131328 13.990912 39.74144 22.327296 11.610112 8.332288 20.687872 16.6656 27.237376 25.003008 15.475712 19.05152 26.78784 40.034304 33.93536 62.95552 7.1424 22.920192 12.201984 44.8 15.178752 65.639424 2.97472 23.811072 4.462592 47.9232 4.462592 72.332288 4.169728 2.97472 7.443456 6.844416 9.827328 11.604992 2.3808 4.169728 4.313088 9.52832 5.803008 16.0768 1.487872 6.549504 1.639424 14.584832 0.448512 24.111104-1.190912 12.502016-3.720192 22.472704-7.589888 29.915136-3.869696 7.440384-8.187904 13.248512-12.950528 17.411072-5.356544 4.76672-11.012096 8.039424-16.96768 9.826304-2.973696 10.121216-5.951488 19.64544-8.930304 28.57472-2.972672 7.740416-6.398976 15.330304-10.268672 22.770688-3.869696 7.442432-8.183808 13.248512-12.947456 17.417216-11.314176 8.930304-20.538368 16.520192-27.684864 22.771712-7.143424 6.250496-11.905024 16.815104-14.2848 31.700992-1.787904 8.930304-2.38592 18.010112-1.787904 27.235328 0.596992 9.228288 3.127296 18.456576 7.589888 27.681792 4.462592 9.229312 11.312128 18.010112 20.54144 26.346496 9.228288 8.333312 22.173696 15.773696 38.843392 22.3232 14.885888 5.952512 31.10912 11.311104 48.67072 16.072704 17.5616 4.765696 34.679808 10.269696 51.345408 16.521216 16.668672 6.254592 31.408128 13.989888 44.207104 23.2192 12.8 9.229312 21.875712 21.879808 27.235328 37.952512 2.977792 9.52832 5.209088 21.282816 6.699008 35.272704 1.487872 13.990912 2.231296 28.131328 2.231296 42.420224s-1.041408 27.681792-3.124224 40.183808c-2.085888 12.505088-5.209088 22.029312-9.377792 28.577792-2.976768 4.168704-11.460608 8.333312-25.450496 12.500992-13.991936 4.168704-31.254528 8.187904-51.792896 12.0576-20.540416 3.8656-43.460608 7.291904-68.762624 10.2656-25.302016 2.977792-50.752512 5.508096-76.352512 7.589888-25.6 2.086912-50.15552 3.725312-73.672704 4.916224-23.513088 1.189888-43.904 1.782784-61.172736 1.782784-17.262592 0-37.354496-0.592896-60.274688-1.782784-22.921216-1.190912-46.583808-2.829312-70.99392-4.916224-24.408064-2.081792-48.669696-4.462592-72.779776-7.1424-24.112128-2.679808-45.991936-5.508096-65.635328-8.481792-19.648512-2.978816-36.318208-5.956608-50.010112-8.931328-13.692928-2.977792-22.324224-5.952512-25.894912-8.930304-5.957632-4.760576-10.568704-19.349504-13.845504-43.758592-3.272704-24.406016-1.933312-55.9616 4.018176-94.656512 2.978816-22.029312 11.759616-38.848512 26.34752-50.453504 14.582784-11.609088 31.551488-20.8384 50.896896-27.685888 19.349504-6.844416 39.442432-12.946432 60.280832-18.305024 20.8384-5.358592 39.29088-13.097984 55.364608-23.2192 12.505088-7.740416 22.029312-15.1808 28.577792-22.3232 6.549504-7.146496 11.312128-14.28992 14.28992-21.43232 2.973696-7.146496 4.462592-14.587904 4.462592-22.32832 0-7.739392-0.299008-16.370688-0.891904-25.893888-1.190912-13.696-5.95456-24.558592-14.288896-32.596992-8.332288-8.035328-17.560576-16.222208-27.681792-24.55552-4.760576-4.168704-8.930304-9.975808-12.500992-17.417216-3.571712-7.440384-6.848512-15.030272-9.826304-22.770688-2.97472-8.930304-5.952512-18.453504-8.931328-28.57472-4.164608-1.189888-8.333312-3.2768-12.500992-6.249472-3.571712-2.97984-7.441408-7.146496-11.609088-12.50304-4.164608-5.358592-7.735296-13.099008-10.714112-23.218176-3.570688-10.121216-4.911104-19.349504-4.020224-27.682816 0.892928-8.337408 2.531328-15.479808 4.911104-21.431296 2.381824-6.549504 6.25152-12.8 11.609088-18.756608-0.592896-22.622208 0.598016-45.244416 3.571712-67.866624 2.381824-19.050496 6.699008-39.590912 12.949504-61.6192 6.250496-22.025216 15.629312-41.672704 28.130304-58.93632 11.312128-16.67072 23.9616-30.217216 37.952512-40.63232 13.990912-10.4192 28.279808-18.60608 42.86464-24.559616 14.58688-5.952512 29.171712-9.970688 43.757568-12.053504C484.393984 65.553408 498.532352 64.512 512.224256 64.512L512.224256 64.512zM512.224256 64.512" />

</svg>
