<?xml version="1.0" encoding="utf-8"?>
<!DOCTYPE svg PUBLIC "-//W3C//DTD SVG 1.1//EN" "http://www.w3.org/Graphics/SVG/1.1/DTD/svg11.dtd">
<svg style="width:308px;height:308px;" version="1.1" id="图形" xmlns="http://www.w3.org/2000/svg" xmlns:xlink="http://www.w3.org/1999/xlink" x="0px" y="0px" width="1024px" height="1024px" viewBox="0 0 1024 1024" enable-background="new 0 0 1024 1024" xml:space="preserve">
  <path class="svgpath" data-index="path_0" fill="#ffffff" d="M402.749784 77.142961c0 0-112.530936 19.989263-209.515804 119.934556 60.430324 28.503171 119.194706 49.232285 119.194706 49.232285C346.853729 129.336694 402.749784 77.142961 402.749784 77.142961z" />
<path class="svgpath" data-index="path_1" fill="#ffffff" d="M165.101245 227.246631c0 0-90.506317 101.05558-99.945293 261.524319 112.161522 0 210.995505 0 210.995505 0s-2.77623-87.730087 24.986067-204.332758C221.181495 261.117043 165.101245 227.246631 165.101245 227.246631z" />
<path class="svgpath" data-index="path_2" fill="#ffffff" d="M402.749784 940.745854c0 0-112.530936-19.989263-209.515804-119.934556 60.430324-28.503171 119.194706-49.232285 119.194706-49.232285C346.853729 888.552122 402.749784 940.745854 402.749784 940.745854z" />
<path class="svgpath" data-index="path_3" fill="#ffffff" d="M165.101245 790.642185c0 0-90.506317-101.05558-99.945293-261.524319 112.161522 0 210.995505 0 210.995505 0s-2.77623 87.730087 24.986067 204.332758C221.181495 756.771773 165.101245 790.642185 165.101245 790.642185z" />
<path class="svgpath" data-index="path_4" fill="#ffffff" d="M490.478847 65.667605" />
<path class="svgpath" data-index="path_5" fill="#ffffff" d="M490.478847 65.667605c0 0-80.696903 12.585643-138.443096 189.526541 14.066367 5.922896 118.453832 22.360264 138.443096 18.508539C491.219721 244.089228 490.478847 65.667605 490.478847 65.667605z" />
<path class="svgpath" data-index="path_6" fill="#ffffff" d="M340.190983 294.431799c0 0-22.209838 84.398202-24.431435 194.338127 91.060949 0 173.938518 0 173.938518 0L489.698065 313.680189C489.698065 313.680189 438.655552 319.603085 340.190983 294.431799z" />
<path class="svgpath" data-index="path_7" fill="#ffffff" d="M490.478847 951.850773c0 0-80.696903-12.585643-138.443096-189.526541 14.066367-5.922896 118.453832-22.360264 138.443096-18.508539C491.219721 773.430174 490.478847 951.850773 490.478847 951.850773z" />
<path class="svgpath" data-index="path_8" fill="#ffffff" d="M340.190983 723.086579c0 0-22.209838-84.398202-24.431435-194.338127 91.060949 0 173.938518 0 173.938518 0l0 175.089737C489.698065 703.83819 438.655552 697.915293 340.190983 723.086579z" />
<path class="svgpath" data-index="path_9" fill="#ffffff" d="M618.515942 77.142961c0 0 112.530936 19.989263 209.515804 119.934556-60.430324 28.503171-119.194706 49.232285-119.194706 49.232285C674.411997 129.336694 618.515942 77.142961 618.515942 77.142961z" />
<path class="svgpath" data-index="path_10" fill="#ffffff" d="M856.16448 227.246631c0 0 90.506317 101.05558 99.945293 261.524319-112.161522 0-210.995505 0-210.995505 0s2.77623-87.730087-24.986067-204.332758C800.084231 261.117043 856.16448 227.246631 856.16448 227.246631z" />
<path class="svgpath" data-index="path_11" fill="#ffffff" d="M618.515942 940.745854c0 0 112.530936-19.989263 209.515804-119.934556-60.430324-28.503171-119.194706-49.232285-119.194706-49.232285C674.411997 888.552122 618.515942 940.745854 618.515942 940.745854z" />
<path class="svgpath" data-index="path_12" fill="#ffffff" d="M856.16448 790.642185c0 0 90.506317-101.05558 99.945293-261.524319-112.161522 0-210.995505 0-210.995505 0s2.77623 87.730087-24.986067 204.332758C800.084231 756.771773 856.16448 790.642185 856.16448 790.642185z" />
<path class="svgpath" data-index="path_13" fill="#ffffff" d="M530.786878 65.667605c0 0 80.696903 12.585643 138.443096 189.526541-14.066367 5.922896-118.453832 22.360264-138.443096 18.508539C530.046005 244.089228 530.786878 65.667605 530.786878 65.667605z" />
<path class="svgpath" data-index="path_14" fill="#ffffff" d="M681.074743 294.431799c0 0 22.209838 84.398202 24.431435 194.338127-91.060949 0-173.938518 0-173.938518 0L531.567661 313.680189C531.567661 313.680189 582.610174 319.603085 681.074743 294.431799z" />
<path class="svgpath" data-index="path_15" fill="#ffffff" d="M530.786878 951.850773c0 0 80.696903-12.585643 138.443096-189.526541-14.066367-5.922896-118.453832-22.360264-138.443096-18.508539C530.046005 773.430174 530.786878 951.850773 530.786878 951.850773z" />
<path class="svgpath" data-index="path_16" fill="#ffffff" d="M681.074743 723.086579c0 0 22.209838-84.398202 24.431435-194.338127-91.060949 0-173.938518 0-173.938518 0l0 175.089737C531.567661 703.83819 582.610174 697.915293 681.074743 723.086579z" />

</svg>
