<?xml version="1.0" encoding="utf-8"?>
<!DOCTYPE svg PUBLIC "-//W3C//DTD SVG 1.1//EN" "http://www.w3.org/Graphics/SVG/1.1/DTD/svg11.dtd">
<svg style="width:308px;height:308px;" version="1.1" id="图形" xmlns="http://www.w3.org/2000/svg" xmlns:xlink="http://www.w3.org/1999/xlink" x="0px" y="0px" width="1024px" height="1024px" viewBox="0 0 1024 1024" enable-background="new 0 0 1024 1024" xml:space="preserve">
  <path class="svgpath" data-index="path_0" fill="#ffffff" d="M693.12 348.352C704.896 348.352 716.48 349.248 728.128 350.528 696.768 204.48 540.672 96 362.432 96 163.2 96 0 231.744 0 404.224 0 503.744 54.272 585.472 145.024 648.96L108.8 757.952 235.52 694.464C280.832 703.36 317.184 712.576 362.432 712.576 373.824 712.576 385.088 712.064 396.224 711.232 389.184 686.976 385.024 661.632 385.024 635.2 385.088 476.864 521.024 348.352 693.12 348.352L693.12 348.352ZM498.304 250.112C525.696 250.112 543.68 268.096 543.68 295.36 543.68 322.496 525.696 340.672 498.304 340.672 471.232 340.672 443.968 322.496 443.968 295.36 443.968 268.032 471.168 250.112 498.304 250.112L498.304 250.112ZM244.672 340.672C217.472 340.672 190.08 322.496 190.08 295.36 190.08 268.096 217.472 250.112 244.672 250.112 271.872 250.112 289.92 268.032 289.92 295.36 289.92 322.496 271.872 340.672 244.672 340.672L244.672 340.672ZM1024 630.848C1024 485.952 878.976 367.872 716.096 367.872 543.616 367.872 407.872 486.016 407.872 630.848 407.872 776.128 543.68 893.824 716.096 893.824 752.192 893.824 788.608 884.8 824.832 875.712L924.224 930.24 896.96 839.616C969.728 784.96 1024 712.576 1024 630.848L1024 630.848ZM616.128 585.472C598.144 585.472 579.904 567.552 579.904 549.248 579.904 531.2 598.144 513.024 616.128 513.024 643.648 513.024 661.504 531.2 661.504 549.248 661.504 567.552 643.648 585.472 616.128 585.472L616.128 585.472ZM815.488 585.472C797.632 585.472 779.456 567.552 779.456 549.248 779.456 531.2 797.568 513.024 815.488 513.024 842.752 513.024 860.864 531.2 860.864 549.248 860.864 567.552 842.752 585.472 815.488 585.472L815.488 585.472Z" />

</svg>
